<?xml version="1.0" encoding="UTF-8" standalone="no"?>
<svg
   xmlns:dc="http://purl.org/dc/elements/1.1/"
   xmlns:cc="http://creativecommons.org/ns#"
   xmlns:rdf="http://www.w3.org/1999/02/22-rdf-syntax-ns#"
   xmlns:svg="http://www.w3.org/2000/svg"
   xmlns="http://www.w3.org/2000/svg"
   xmlns:sodipodi="http://sodipodi.sourceforge.net/DTD/sodipodi-0.dtd"
   xmlns:inkscape="http://www.inkscape.org/namespaces/inkscape"
   width="60"
   height="60"
   id="svg3026"
   version="1.1"
   inkscape:version="0.92.3 (2405546, 2018-03-11)"
   sodipodi:docname="barrow.svg">
  <metadata
     id="metadata3038">
    <rdf:RDF>
      <cc:Work
         rdf:about="">
        <dc:format>image/svg+xml</dc:format>
        <dc:type
           rdf:resource="http://purl.org/dc/dcmitype/StillImage" />
        <dc:title></dc:title>
      </cc:Work>
    </rdf:RDF>
  </metadata>
  <defs
     id="defs3036">
    <linearGradient
       id="linearGradient4006">
      <stop
         style="stop-color:#252525;stop-opacity:1;"
         offset="0"
         id="stop4008" />
      <stop
         style="stop-color:#4a4a4a;stop-opacity:1;"
         offset="1"
         id="stop4010" />
    </linearGradient>
  </defs>
  <sodipodi:namedview
     pagecolor="#ffffff"
     bordercolor="#666666"
     borderopacity="1"
     objecttolerance="10"
     gridtolerance="10"
     guidetolerance="10"
     inkscape:pageopacity="0"
     inkscape:pageshadow="2"
     inkscape:window-width="3440"
     inkscape:window-height="1377"
     id="namedview3034"
     showgrid="false"
     inkscape:zoom="12.3"
     inkscape:cx="38.016225"
     inkscape:cy="24.049655"
     inkscape:window-x="-8"
     inkscape:window-y="-8"
     inkscape:window-maximized="1"
     inkscape:current-layer="g3028"
     showguides="true"
     inkscape:pagecheckerboard="true">
    <inkscape:grid
       type="xygrid"
       id="grid3040" />
  </sodipodi:namedview>
  <g
     id="g3028"
     style="stroke:#d40000;stroke-width:2.23000002"
     transform="translate(0,40)">
    <path
       inkscape:connector-curvature="0"
       id="path4003"
       style="font-style:normal;font-variant:normal;font-weight:normal;font-stretch:normal;font-size:11.38508987px;line-height:125%;font-family:'Segoe UI Symbol';-inkscape-font-specification:'Segoe UI Symbol';text-align:start;letter-spacing:0px;word-spacing:0px;writing-mode:lr-tb;text-anchor:start;fill:#ffffff;fill-opacity:1;stroke:none;stroke-width:6.35941076"
       d="m 6.4213207,-9.7686329 c 5.79e-5,2.1560294 0.284205,4.2326941 0.8523953,6.2299883 0.5683164,1.9972447 1.3622103,3.87334264 2.3816849,5.628297 1.0195811,1.7548897 2.2438481,3.3510373 3.6728071,4.7884379 1.42906,1.4373325 3.016846,2.6699561 4.763371,3.6978777 1.74661,1.027845 3.622708,1.825917 5.628298,2.39422 2.005663,0.568221 4.0865,0.852349 6.242518,0.852393 2.156082,-4.4e-5 4.232739,-0.284177 6.229986,-0.852393 1.997297,-0.568303 3.865035,-1.366375 5.603222,-2.39422 1.738234,-1.0279216 3.330201,-2.2605452 4.775907,-3.6978777 1.445738,-1.4374006 2.682542,-3.0335482 3.710414,-4.7884379 1.027898,-1.75495436 1.830147,-3.6310523 2.406755,-5.628297 0.576626,-1.9972942 0.864936,-4.0739589 0.864924,-6.2299883 1.2e-5,-2.1560671 -0.28412,-4.2327281 -0.852392,-6.2299841 -0.568248,-1.997284 -1.36632,-3.8692 -2.394218,-5.615763 -1.027872,-1.746567 -2.260496,-3.334358 -3.697881,-4.763369 -1.437346,-1.429008 -3.033492,-2.657455 -4.788436,-3.685341 -1.754903,-1.027884 -3.630998,-1.825956 -5.628295,-2.394222 -1.997247,-0.568251 -4.073904,-0.852386 -6.229986,-0.85239 -2.156018,4e-6 -4.236855,0.284149 -6.242518,0.85239 -2.00559,0.568266 -3.881688,1.362163 -5.628298,2.381686 -1.746525,1.019533 -3.334311,2.243798 -4.763371,3.672807 -1.428959,1.429011 -2.653226,3.020976 -3.6728071,4.775906 -1.0194746,1.754917 -1.8133685,3.631012 -2.3816849,5.628296 -0.5682039,1.997256 -0.8523374,4.073917 -0.8523953,6.2299841 z m 7.8971643,0.100304 v -0.100304 L 25.800713,-21.777334 h 8.323361 l -8.749556,8.950121 h 19.028405 v 6.2174483 H 25.374518 l 8.749556,8.9501183 h -8.323361 z m -12.836022,-0.12538 c 5.97e-5,-2.5906201 0.342698,-5.0892941 1.0278824,-7.4960401 0.6853192,-2.406761 1.654702,-4.667272 2.9081619,-6.781532 1.2535742,-2.114269 2.7494421,-4.040509 4.4875966,-5.778722 1.7382611,-1.738204 3.6645001,-3.23407 5.7787141,-4.487591 2.114315,-1.253513 4.379001,-2.222896 6.794073,-2.908164 2.415153,-0.685242 4.918006,-1.027872 7.508573,-1.027881 2.590635,9e-6 5.093489,0.342654 7.508573,1.027884 2.415136,0.685268 4.679822,1.646295 6.79407,2.883095 2.114284,1.236809 4.044699,2.724315 5.791252,4.462524 1.74658,1.738211 3.246622,3.664452 4.500132,5.778719 1.253525,2.114262 2.222912,4.378948 2.90816,6.794064 0.685263,2.415102 1.027893,4.926313 1.027886,7.5336461 7e-6,2.5905823 -0.342623,5.0934422 -1.027886,7.5085751 -0.685248,2.41508524 -1.654635,4.6797711 -2.90816,6.7940663 -1.25351,2.1142338 -2.753552,4.0446515 -4.500132,5.7912565 -1.746553,1.746528 -3.676968,3.246571 -5.791252,4.500129 -2.114248,1.253476 -4.378934,2.22704 -6.79407,2.920699 -2.415084,0.693566 -4.917938,1.040374 -7.508573,1.04042 -2.590567,-4.6e-5 -5.09342,-0.342676 -7.508573,-1.027888 C 20.063819,17.048253 17.799133,16.083043 15.684818,14.837928 13.570604,13.592727 11.644365,12.096864 9.9061039,10.350334 8.1679494,8.6037293 6.6720815,6.6733117 5.4185073,4.5590778 4.1650474,2.4447827 3.1956646,0.17591854 2.5103454,-2.247523 1.8251524,-4.6710106 1.4825227,-7.1864067 1.482463,-9.7937039 Z" />
  </g>
</svg>
