<?xml version="1.0" encoding="UTF-8" standalone="no"?>
<svg
   xmlns:dc="http://purl.org/dc/elements/1.1/"
   xmlns:cc="http://creativecommons.org/ns#"
   xmlns:rdf="http://www.w3.org/1999/02/22-rdf-syntax-ns#"
   xmlns:svg="http://www.w3.org/2000/svg"
   xmlns="http://www.w3.org/2000/svg"
   xmlns:sodipodi="http://sodipodi.sourceforge.net/DTD/sodipodi-0.dtd"
   xmlns:inkscape="http://www.inkscape.org/namespaces/inkscape"
   sodipodi:docname="darrow.svg"
   inkscape:version="1.0 (4035a4fb49, 2020-05-01)"
   version="1.1"
   id="svg3026"
   height="60"
   width="60">
  <metadata
     id="metadata3038">
    <rdf:RDF>
      <cc:Work
         rdf:about="">
        <dc:format>image/svg+xml</dc:format>
        <dc:type
           rdf:resource="http://purl.org/dc/dcmitype/StillImage" />
        <dc:title></dc:title>
      </cc:Work>
    </rdf:RDF>
  </metadata>
  <defs
     id="defs3036">
    <linearGradient
       id="linearGradient4006">
      <stop
         id="stop4008"
         offset="0"
         style="stop-color:#252525;stop-opacity:1;" />
      <stop
         id="stop4010"
         offset="1"
         style="stop-color:#4a4a4a;stop-opacity:1;" />
    </linearGradient>
  </defs>
  <sodipodi:namedview
     inkscape:document-rotation="0"
     inkscape:pagecheckerboard="true"
     showguides="true"
     inkscape:current-layer="g3028"
     inkscape:window-maximized="1"
     inkscape:window-y="-8"
     inkscape:window-x="-8"
     inkscape:cy="27.301688"
     inkscape:cx="38.016225"
     inkscape:zoom="12.3"
     showgrid="false"
     id="namedview3034"
     inkscape:window-height="1017"
     inkscape:window-width="1920"
     inkscape:pageshadow="2"
     inkscape:pageopacity="0"
     guidetolerance="10"
     gridtolerance="10"
     objecttolerance="10"
     borderopacity="1"
     bordercolor="#666666"
     pagecolor="#ffffff">
    <inkscape:grid
       id="grid3040"
       type="xygrid" />
  </sodipodi:namedview>
  <g
     transform="translate(0,40)"
     style="stroke:#d40000;stroke-width:2.23000002"
     id="g3028">
    <path
       d="m 29.987467,13.822579 c 2.15603,-5.8e-5 4.232694,-0.284205 6.229988,-0.852395 1.997245,-0.568316 3.873343,-1.36221 5.628297,-2.381685 1.75489,-1.019581 3.351038,-2.243848 4.788438,-3.672807 1.437333,-1.42906 2.669956,-3.016846 3.697878,-4.763371 1.027845,-1.74661 1.825917,-3.622708 2.39422,-5.628298 0.568221,-2.005663 0.852349,-4.0865 0.852393,-6.242518 -4.4e-5,-2.156082 -0.284177,-4.232739 -0.852393,-6.229986 -0.568303,-1.997297 -1.366375,-3.865035 -2.39422,-5.603222 -1.027922,-1.738234 -2.260545,-3.330201 -3.697878,-4.775907 -1.4374,-1.445738 -3.033548,-2.682542 -4.788438,-3.710414 -1.754954,-1.027898 -3.631052,-1.830147 -5.628297,-2.406755 -1.997294,-0.576626 -4.073958,-0.864936 -6.229988,-0.864924 -2.156067,-1.2e-5 -4.232728,0.28412 -6.229984,0.852392 -1.997284,0.568248 -3.8692,1.36632 -5.615763,2.394218 -1.746567,1.027872 -3.334358,2.260496 -4.763369,3.697881 -1.429008,1.437346 -2.657455,3.033492 -3.685341,4.788436 -1.027884,1.754903 -1.825956,3.630998 -2.394222,5.628295 -0.568251,1.997247 -0.852386,4.073904 -0.85239,6.229986 4e-6,2.156018 0.284149,4.236855 0.85239,6.242518 0.568266,2.00559 1.362163,3.881688 2.381686,5.628298 1.019533,1.746525 2.243798,3.334311 3.672807,4.763371 1.429011,1.428959 3.020976,2.653226 4.775906,3.672807 1.754917,1.019475 3.631012,1.813369 5.628296,2.381685 1.997256,0.568204 4.073917,0.852337 6.229984,0.852395 z M 30.087771,5.925415 H 29.987467 L 17.978766,-5.556813 v -8.323361 l 8.950121,8.749556 v -19.028405 h 6.217448 v 19.028405 l 8.950119,-8.749556 v 8.323361 z m -0.12538,12.836022 c -2.59062,-6e-5 -5.089294,-0.342698 -7.49604,-1.027882 C 20.05959,17.048235 17.799079,16.078853 15.684819,14.825393 13.57055,13.571819 11.64431,12.075951 9.906097,10.337796 8.167893,8.599535 6.672027,6.673296 5.418506,4.559082 4.164993,2.444767 3.19561,0.180081 2.510342,-2.234991 1.8251,-4.650144 1.48247,-7.152997 1.482461,-9.743564 c 9e-6,-2.590635 0.342654,-5.093489 1.027884,-7.508573 0.685268,-2.415136 1.646295,-4.679822 2.883095,-6.79407 1.236809,-2.114284 2.724315,-4.044699 4.462524,-5.791252 1.738211,-1.74658 3.664452,-3.246622 5.778719,-4.500132 2.114262,-1.253525 4.378948,-2.222912 6.794064,-2.90816 2.415102,-0.685263 4.926313,-1.027893 7.533646,-1.027886 2.590582,-7e-6 5.093442,0.342623 7.508575,1.027886 2.415085,0.685248 4.679771,1.654635 6.794067,2.90816 2.114233,1.25351 4.044651,2.753552 5.791256,4.500132 1.746528,1.746553 3.246571,3.676968 4.500129,5.791252 1.253476,2.114248 2.22704,4.378934 2.920699,6.79407 0.693566,2.415084 1.040374,4.917938 1.04042,7.508573 -4.6e-5,2.590567 -0.342676,5.09342 -1.027888,7.508573 -0.685298,2.415072 -1.650508,4.679758 -2.895623,6.794073 -1.245201,2.114214 -2.741064,4.040453 -4.487594,5.778714 -1.746605,1.738155 -3.677022,3.234023 -5.791256,4.487597 -2.114295,1.25346 -4.383159,2.222842 -6.806601,2.908162 -2.423488,0.685193 -4.938884,1.027822 -7.546181,1.027882 z"
       style="font-style:normal;font-variant:normal;font-weight:normal;font-stretch:normal;font-size:11.3851px;line-height:125%;font-family:'Segoe UI Symbol';-inkscape-font-specification:'Segoe UI Symbol';text-align:start;letter-spacing:0px;word-spacing:0px;writing-mode:lr-tb;text-anchor:start;fill:#ffffff;fill-opacity:1;stroke:none;stroke-width:6.35941"
       id="path4003"
       inkscape:connector-curvature="0" />
  </g>
</svg>
