<?xml version="1.0" encoding="UTF-8" standalone="no"?>
<!-- Created with Inkscape (http://www.inkscape.org/) -->

<svg
   xmlns:dc="http://purl.org/dc/elements/1.1/"
   xmlns:cc="http://creativecommons.org/ns#"
   xmlns:rdf="http://www.w3.org/1999/02/22-rdf-syntax-ns#"
   xmlns:svg="http://www.w3.org/2000/svg"
   xmlns="http://www.w3.org/2000/svg"
   xmlns:sodipodi="http://sodipodi.sourceforge.net/DTD/sodipodi-0.dtd"
   xmlns:inkscape="http://www.inkscape.org/namespaces/inkscape"
   width="210mm"
   height="210mm"
   viewBox="0 0 210 210"
   version="1.1"
   id="svg8"
   inkscape:version="0.92.3 (2405546, 2018-03-11)"
   sodipodi:docname="settings.svg">
  <defs
     id="defs2" />
  <sodipodi:namedview
     id="base"
     pagecolor="#ffffff"
     bordercolor="#666666"
     borderopacity="1.0"
     inkscape:pageopacity="0.0"
     inkscape:pageshadow="2"
     inkscape:zoom="0.98994949"
     inkscape:cx="827.12871"
     inkscape:cy="406.53108"
     inkscape:document-units="mm"
     inkscape:current-layer="layer1"
     showgrid="false"
     inkscape:window-width="3440"
     inkscape:window-height="1377"
     inkscape:window-x="-8"
     inkscape:window-y="-8"
     inkscape:window-maximized="1" />
  <metadata
     id="metadata5">
    <rdf:RDF>
      <cc:Work
         rdf:about="">
        <dc:format>image/svg+xml</dc:format>
        <dc:type
           rdf:resource="http://purl.org/dc/dcmitype/StillImage" />
        <dc:title></dc:title>
      </cc:Work>
    </rdf:RDF>
  </metadata>
  <g
     inkscape:label="Layer 1"
     inkscape:groupmode="layer"
     id="layer1"
     transform="translate(0,-87)">
    <path
       style="fill:#000000;stroke-width:0.92644894"
       d="m 90.12838,294.41509 c -4.950639,-2.45189 -5.972727,-4.36816 -7.77357,-14.57437 l -1.529667,-8.66929 -7.007219,-3.04617 -7.007218,-3.04615 -7.718936,5.39547 c -6.896061,4.82028 -8.210652,5.39546 -12.331532,5.39546 -4.602436,0 -4.633682,-0.0207 -14.185589,-9.42033 C 18.942397,253.03484 18.469282,250.54235 27.23603,238.32407 l 5.076984,-7.07584 -3.05481,-7.27303 -3.054799,-7.27303 -6.48515,-1.01899 C 11.056983,214.32225 5.5016725,212.03948 3.1375051,208.86986 1.4461469,206.60226 1.1481577,204.71024 0.87739385,194.51996 0.36763843,175.33481 1.9283564,172.87349 16.514307,169.86 l 9.299388,-1.92127 3.069425,-7.08834 3.069425,-7.08834 -2.03397,-2.63938 c -6.963558,-9.03624 -8.810639,-12.59267 -8.810639,-16.96428 0,-5.45034 2.535135,-9.19638 11.941684,-17.64556 11.289835,-10.14081 14.261996,-10.39861 25.654124,-2.22512 l 7.128203,5.11424 7.052747,-3.0277 c 3.879013,-1.66524 7.126874,-3.04772 7.217461,-3.07216 0.0906,-0.0244 0.846275,-3.97268 1.679297,-8.77386 1.693833,-9.762605 3.720576,-13.464351 8.45489,-15.442474 4.198833,-1.754383 24.292588,-1.759637 28.486168,-0.0074 3.90673,1.632333 6.86477,5.401104 7.61522,9.702355 0.32436,1.859109 1.06489,5.793629 1.64563,8.743389 l 1.05588,5.36318 7.32704,3.17384 7.32702,3.17385 6.51981,-4.7421 c 12.51534,-9.1029 15.87611,-8.71042 27.99255,3.26898 8.75743,8.65837 10.58954,11.51009 10.58954,16.48276 0,3.39514 -0.86107,5.09849 -6.58759,13.03133 l -4.47864,6.20417 2.64671,5.83966 c 1.45569,3.21181 2.86003,6.49049 3.12075,7.28593 0.33372,1.01815 2.76498,1.79468 8.21349,2.62335 15.3275,2.33118 17.41407,5.03352 17.44682,22.59555 0.0323,17.31668 -2.06049,20.27008 -16.12133,22.75106 l -8.93881,1.57721 -3.1452,7.23505 -3.14521,7.23506 5.00955,6.98185 c 5.17473,7.21205 6.64177,11.38518 5.5519,15.79278 -0.83488,3.37632 -18.6686,21.21002 -22.04492,22.0449 -4.36531,1.07943 -8.31488,-0.31361 -15.67633,-5.5292 l -7.10103,-5.03106 -7.23369,3.14461 -7.23368,3.14461 -1.57722,8.93882 c -2.47921,14.05082 -5.42693,16.14209 -22.75105,16.14092 -9.015096,-5.8e-4 -11.560746,-0.32026 -14.62134,-1.83607 z m 26.86703,-20.05045 c 1.01909,-5.66867 2.40895,-10.96473 3.08856,-11.76904 0.67961,-0.80432 3.40953,-2.09436 6.06647,-2.86674 2.65695,-0.7724 7.31219,-2.66261 10.34496,-4.20046 3.03276,-1.53787 6.4915,-2.8014 7.68606,-2.80785 1.19456,-0.007 5.57204,2.42073 9.72771,5.39374 4.15568,2.97302 8.00326,5.66198 8.55017,5.97545 0.54693,0.31347 4.20736,-2.66197 8.13432,-6.6121 l 7.13991,-7.18203 -6.0498,-8.45695 c -3.32739,-4.65132 -6.04451,-9.42386 -6.03806,-10.60562 0.007,-1.18177 1.26999,-4.63004 2.80785,-7.66281 1.53785,-3.03278 3.42807,-7.688 4.20047,-10.34495 0.77239,-2.65694 2.06242,-5.38687 2.86673,-6.06648 0.80431,-0.67962 6.10039,-2.06947 11.76904,-3.08856 l 10.30667,-1.8529 V 192.0264 181.83547 l -10.40534,-1.8529 c -5.96923,-1.06296 -10.94326,-2.44536 -11.66711,-3.24257 -0.69396,-0.76433 -2.20376,-4.09955 -3.3551,-7.41159 -1.15132,-3.31206 -3.09269,-7.84627 -4.31414,-10.07602 -1.22145,-2.22976 -2.2208,-5.07272 -2.2208,-6.31769 0,-1.30603 2.55926,-5.84117 6.04979,-10.72055 l 6.0498,-8.45695 -7.13991,-7.18203 c -3.92696,-3.95013 -7.58739,-6.90899 -8.13432,-6.57524 -0.54691,0.33375 -4.37719,3.02271 -8.51173,5.97544 -8.26657,5.90369 -10.53406,6.40784 -15.53888,3.45492 -2.41233,-1.42331 -17.56095,-7.35078 -18.78612,-7.35078 -0.543,0 -2.20722,-7.0616 -3.16593,-13.43351 -0.61332,-4.07637 -1.52363,-7.93272 -2.02293,-8.56965 -0.6172,-0.787368 -3.84439,-1.158063 -10.08178,-1.158063 -10.695333,0 -9.998265,-0.706556 -11.882113,12.043833 -1.430684,9.68326 -2.604453,11.67526 -7.666077,13.0101 -2.166947,0.57146 -7.332399,2.67727 -11.478797,4.67957 -4.984977,2.40726 -8.123467,3.41717 -9.264489,2.98115 -0.949071,-0.36268 -5.10839,-3.07746 -9.242934,-6.03287 -4.134544,-2.9554 -7.897097,-5.37346 -8.361221,-5.37346 -0.464136,0 -3.907132,3.08383 -7.651096,6.85295 -4.762707,4.79471 -6.576871,7.22943 -6.04028,8.10644 0.421826,0.6894 3.182827,4.63628 6.135574,8.77082 5.803808,8.12672 6.30975,10.17509 3.608158,14.60807 -0.968256,1.58879 -2.907929,6.22391 -4.310403,10.30029 -1.402463,4.07638 -3.028765,7.93914 -3.613988,8.58393 -0.585224,0.64479 -4.794846,1.79828 -9.35471,2.56333 -13.992549,2.34762 -12.459698,0.81263 -12.459698,12.47718 0,11.66125 -1.518431,10.13237 12.377679,12.46289 4.514759,0.75716 8.768581,1.84136 9.452924,2.40931 0.684343,0.56796 1.87346,3.18646 2.642491,5.8189 0.769031,2.63243 2.871689,7.70457 4.672567,11.27139 1.800889,3.56683 3.275625,6.94143 3.277194,7.49911 0.0011,0.55768 -2.707009,4.80205 -6.019068,9.43194 -3.312047,4.62988 -6.021908,8.76995 -6.021908,9.20016 0,0.4302 3.083822,3.84544 6.85295,7.58941 4.702117,4.67074 7.246359,6.57808 8.106423,6.07713 0.689417,-0.40154 4.653577,-3.16255 8.809265,-6.13557 4.155676,-2.97301 8.161756,-5.40548 8.902405,-5.40548 0.740638,0 4.427872,1.41906 8.193838,3.15346 3.765978,1.73441 8.552864,3.60871 10.637517,4.16511 2.084653,0.55641 4.436072,1.74299 5.225353,2.63685 0.791023,0.89582 2.152711,5.99091 3.034114,11.35291 0.879479,5.35024 1.792173,10.05416 2.028221,10.45315 0.236036,0.39898 4.87774,0.60743 10.314909,0.46323 l 9.88573,-0.26222 z M 94.619693,235.6438 c -12.600337,-3.05639 -24.423442,-12.54302 -29.879174,-23.97448 -12.595813,-26.39215 2.743156,-57.61263 31.223762,-63.55189 24.947639,-5.2025 49.195789,11.8477 53.165809,37.38377 4.80097,30.88113 -24.14535,57.50805 -54.510397,50.1426 z m 25.181037,-13.94315 c 6.54235,-3.20089 13.62964,-11.01483 16.20374,-17.86511 2.71091,-7.21438 2.67101,-16.45386 -0.10308,-23.87801 -1.52339,-4.07691 -3.55239,-7.01833 -7.70749,-11.17342 -7.0492,-7.04921 -13.48669,-9.74959 -23.24229,-9.74959 -9.755616,0 -16.193108,2.70038 -23.242315,9.74959 -7.125111,7.12512 -9.864145,13.66209 -9.779239,23.33912 0.216268,24.64712 25.72892,40.41037 47.870714,29.57742 z"
       id="path4529"
       inkscape:connector-curvature="0" />
  </g>
</svg>
