<?xml version="1.0" encoding="UTF-8"?>
<svg width="512" height="512" version="1.1" viewBox="0 0 135.47 135.47" xmlns="http://www.w3.org/2000/svg" xmlns:cc="http://creativecommons.org/ns#" xmlns:dc="http://purl.org/dc/elements/1.1/" xmlns:rdf="http://www.w3.org/1999/02/22-rdf-syntax-ns#">
 <metadata>
  <rdf:RDF>
   <cc:Work rdf:about="">
    <dc:format>image/svg+xml</dc:format>
    <dc:type rdf:resource="http://purl.org/dc/dcmitype/StillImage"/>
    <dc:title/>
   </cc:Work>
  </rdf:RDF>
 </metadata>
 <g transform="translate(0 -74.533)">
  <rect x="5.3083" y="110.98" width="125.93" height="67.624" ry="0" fill="#fff" fill-opacity=".99034" stroke="#00f" stroke-width="3.5219" style="paint-order:markers stroke fill"/>
 </g>
 <g>
  <g display="none">
   <g transform="translate(-.68626 .85047)" display="inline" fill="none" stroke="#00f">
    <circle cx="68.299" cy="22.545" r="8.3167" stroke-width="2.5752" style="paint-order:markers stroke fill"/>
    <path d="m77.382 13.616-17.52 17.937" display="inline" stroke-width="1.7584"/>
   </g>
   <g transform="translate(-.11511 -.022867)" display="inline">
    <g transform="translate(0 -161.53)">
     <g transform="translate(-3.0198 94.216)" fill="#00f">
      <path d="m77.508 90.837a6.5481 6.4145 0 0 1-6.5426 6.4145 6.5481 6.4145 0 0 1-6.5536-6.4037 6.5481 6.4145 0 0 1 6.5316-6.4253 6.5481 6.4145 0 0 1 6.5646 6.3928l-6.5481 0.02161z" fill="#f00" style="paint-order:markers stroke fill"/>
     </g>
    </g>
   </g>
  </g>
  <g>
   <g transform="translate(-.11511 -.022867)">
    <g transform="translate(0 -161.53)">
     <g transform="translate(-3.0198 94.216)" fill="#00f">
      <path d="m77.508 90.837a6.5481 6.4145 0 0 1-6.5426 6.4145 6.5481 6.4145 0 0 1-6.5536-6.4037 6.5481 6.4145 0 0 1 6.5316-6.4253 6.5481 6.4145 0 0 1 6.5646 6.3928l-6.5481 0.02161z" fill="#00f" style="paint-order:markers stroke fill"/>
     </g>
    </g>
   </g>
  </g>
  <g display="none">
   <g transform="translate(-.11511 -.022867)" display="inline">
    <g transform="translate(0 -161.53)">
     <g transform="translate(-2.8308 168.75)" fill="#00f">
      <g fill="#00f">
       <path d="m77.508 16.303a6.5481 6.4145 0 0 1-6.5426 6.4145 6.5481 6.4145 0 0 1-6.5536-6.4037 6.5481 6.4145 0 0 1 6.5316-6.4253 6.5481 6.4145 0 0 1 6.5646 6.3928l-6.5481 0.02161z" style="paint-order:markers stroke fill"/>
       <path d="m113.86 16.704a6.4145 6.5481 0 0 1-6.4091 6.5481 6.4145 6.5481 0 0 1-6.4199-6.5371 6.4145 6.5481 0 0 1 6.3982-6.5591 6.4145 6.5481 0 0 1 6.4306 6.526l-6.4144 0.02206z" style="paint-order:markers stroke fill"/>
       <path d="m41.413 16.761a6.4145 6.4145 0 0 1-6.4091 6.4145 6.4145 6.4145 0 0 1-6.4199-6.4037 6.4145 6.4145 0 0 1 6.3983-6.4253 6.4145 6.4145 0 0 1 6.4306 6.3928l-6.4144 0.02161z" style="paint-order:markers stroke fill"/>
      </g>
     </g>
    </g>
   </g>
   <g transform="translate(.45891 .6369)" display="inline">
    <g transform="translate(0 -161.53)">
     <g transform="translate(-3.0198 94.216)" fill="#00f" stroke-width="6">
      <rect x="68.977" y="81.68" width="2.8348" height="15.497" style="paint-order:markers stroke fill"/>
      <rect x="68.977" y="81.68" width="2.8348" height="15.497" style="paint-order:markers stroke fill"/>
     </g>
    </g>
   </g>
   <path d="m57.83 34.774v-24.19h20.033v24.001" fill="none" stroke="#00f" stroke-width="3.665"/>
   <g transform="translate(-4.3588)">
    <g transform="translate(.45891 .6369)" display="inline">
     <g transform="translate(0 -161.53)">
      <g transform="translate(-3.0198 94.216)" fill="#00f">
       <rect x="68.977" y="81.68" width="2.8348" height="15.497" fill="#00f" stroke-width="6" style="paint-order:markers stroke fill"/>
      </g>
     </g>
    </g>
    <g transform="translate(8.9769 .61421)" display="inline">
     <g transform="translate(0 -161.53)">
      <g transform="translate(-3.0198 94.216)" fill="#00f">
       <rect x="68.977" y="81.68" width="2.8348" height="15.497" fill="#00f" stroke-width="6" style="paint-order:markers stroke fill"/>
      </g>
     </g>
    </g>
   </g>
   <g transform="translate(-4.1553)">
    <g transform="translate(-3.8999 .6369)" display="inline">
     <g transform="translate(0 -161.53)">
      <g transform="translate(-3.0198 94.216)" fill="#00f">
       <rect x="68.977" y="81.68" width="2.8348" height="15.497" fill="#00f" stroke-width="6" style="paint-order:markers stroke fill"/>
      </g>
     </g>
    </g>
    <g transform="translate(4.6181 .61421)" display="inline">
     <g transform="translate(0 -161.53)">
      <g transform="translate(-3.0198 94.216)" fill="#00f">
       <rect x="68.977" y="81.68" width="2.8348" height="15.497" fill="#00f" stroke-width="6" style="paint-order:markers stroke fill"/>
      </g>
     </g>
    </g>
    <g transform="translate(12.929 .6063)" display="inline">
     <g transform="translate(0 -161.53)">
      <g transform="translate(-3.0198 94.216)" fill="#00f">
       <rect x="68.977" y="81.68" width="2.8348" height="15.497" fill="#00f" stroke-width="6" style="paint-order:markers stroke fill"/>
      </g>
     </g>
    </g>
   </g>
  </g>
 </g>
 <g display="none" fill="none" stroke="#00f">
  <circle cx="69.334" cy="95.208" r="7.9239" stroke-width="2.4536" style="paint-order:markers stroke fill"/>
  <circle cx="95.473" cy="94.971" r="8.0876" stroke-width="2.5043" style="paint-order:markers stroke fill"/>
  <circle cx="41.569" cy="94.976" r="8.0057" stroke-width="2.4789" style="paint-order:markers stroke fill"/>
  <path d="m4.5495 104.28-3e-3 28.516" display="inline" stroke-width="2"/>
 </g>
 <g>
  <g display="none">
   <g transform="translate(.76717 -161.83)">
    <path d="m36.691 221.07 30.177 8.797 29.461-8.7476-29.564 18.435z" fill="none" stroke="#00f" stroke-width="4"/>
   </g>
   <text x="49.516724" y="82.272537" fill="#0000ff" font-family="sans-serif" font-size="10.583px" letter-spacing="0px" stroke-width=".26458" word-spacing="0px" style="line-height:1.25" xml:space="preserve"><tspan x="49.516724" y="82.272537" fill="#0000ff" font-size="31.75px" stroke-width=".26458">SF</tspan></text>
   <circle cx="68.111" cy="69.327" r="8.5199" fill="#00f" stroke="#00f" stroke-width="3.2695" style="paint-order:markers stroke fill"/>
   <g transform="translate(5.4736e-6 -161.53)">
    <path d="m131.24 197.61-125.93 67.624" fill="none" stroke="#00f" stroke-width="3.5219"/>
   </g>
   <g transform="matrix(.81189 0 0 .81189 -157.39 27.493)">
    <g transform="translate(212.23 -183.79)" fill="none" stroke="#00f" stroke-width="4.7">
     <path d="m36.853 246.35v-24.757h58.964v25.324"/>
     <path d="m66.429 223.01v24.379"/>
    </g>
   </g>
  </g>
  <g transform="translate(0 -161.53)" display="none">
   <rect x="30.592" y="214.41" width="75.709" height="33.095" rx="17.036" fill="none" stroke="#00f" stroke-width="1.8851" style="paint-order:markers stroke fill"/>
  </g>
  <g display="none">
   <g transform="matrix(.65392 0 0 .65392 -28.949 -21.871)">
    <g transform="translate(81.725 62.17)" fill="none" stroke-width="4.55">
     <path transform="translate(-1.2917e-6 -74.533)" d="m58.019 133.98 9.3549-9.0242 8.3155 8.4572" stroke="#0000f9"/>
     <g transform="translate(0 -161.53)" stroke="#00f">
      <path d="m67.28 214.03v29.199"/>
      <circle cx="67.469" cy="251.45" r="8.6935" style="paint-order:markers stroke fill"/>
     </g>
    </g>
   </g>
  </g>
  <g>
   <g transform="translate(0 -161.53)" fill="none" stroke="#00f" stroke-width="3.5219">
    <path d="m5.3086 197.61 125.93 67.624"/>
    <path d="m131.24 197.61-125.93 67.624"/>
   </g>
  </g>
  <g display="none" fill="none" stroke="#00f" stroke-width="3.5219">
   <path d="m4.6929 69.376 127.44-0.033768"/>
   <path d="m67.69 35.736-0.0636 68.758"/>
   <path d="m4.6929 84.684 127.44-0.033768"/>
  </g>
 </g>
</svg>
